<svg width="48" height="48" viewBox="0 0 48 48" fill="none" xmlns="http://www.w3.org/2000/svg">
<rect width="48" height="48" rx="24" fill="#CD84F0"/>
<path d="M34.507 21.9909H32.9382L24.7901 13.8428C24.8751 13.672 24.9233 13.4795 24.9233 13.276C24.9233 12.5724 24.3509 12 23.6473 12C22.9437 12 22.3713 12.5724 22.3713 13.276C22.3713 13.4795 22.4194 13.672 22.5045 13.8428L14.3564 21.9909H12.7876C11.8444 21.9909 11.0771 22.7582 11.0771 23.7014V31.5204C11.0771 32.4635 11.8444 33.2308 12.7876 33.2308H34.507C35.4501 33.2308 36.2174 32.4635 36.2174 31.5204V23.7014C36.2174 22.7582 35.4501 21.9909 34.507 21.9909ZM23.6473 12.8145C23.9018 12.8145 24.1088 13.0215 24.1088 13.276C24.1088 13.5305 23.9018 13.7376 23.6473 13.7376C23.3928 13.7376 23.1857 13.5305 23.1857 13.276C23.1857 13.0215 23.3928 12.8145 23.6473 12.8145ZM23.0805 14.4188C23.2513 14.5039 23.4438 14.552 23.6473 14.552C23.8508 14.552 24.0432 14.5039 24.2141 14.4188L31.7863 21.9909H15.5083L23.0805 14.4188ZM35.4029 31.5204C35.4029 32.0144 35.001 32.4163 34.507 32.4163H12.7876C12.2935 32.4163 11.8916 32.0144 11.8916 31.5204V23.7014C11.8916 23.2073 12.2935 22.8054 12.7876 22.8054H34.507C35.001 22.8054 35.4029 23.2073 35.4029 23.7014V31.5204Z" fill="white"/>
<path d="M14.5239 25.8457C14.9035 25.8457 15.2432 26.0861 15.3693 26.4439C15.444 26.656 15.6766 26.7673 15.8886 26.6927C16.1008 26.618 16.2121 26.3855 16.1374 26.1733C15.8968 25.4902 15.2484 25.0312 14.5239 25.0312C13.5808 25.0312 12.8135 25.7985 12.8135 26.7417V28.4792C12.8135 29.4223 13.5808 30.1896 14.5239 30.1896C15.2475 30.1896 15.8957 29.7315 16.1368 29.0495C16.2118 28.8374 16.1007 28.6048 15.8886 28.5298C15.6766 28.4549 15.4439 28.5659 15.3689 28.778C15.2426 29.1351 14.9031 29.3751 14.5239 29.3751C14.0299 29.3751 13.628 28.9732 13.628 28.4792V26.7417C13.628 26.2476 14.0299 25.8457 14.5239 25.8457Z" fill="white"/>
<path d="M19.3067 29.3751H17.542V25.4385C17.542 25.2135 17.3597 25.0312 17.1348 25.0312C16.9099 25.0312 16.7275 25.2135 16.7275 25.4385V29.7824C16.7275 30.0073 16.9099 30.1896 17.1348 30.1896H19.3067C19.5316 30.1896 19.714 30.0073 19.714 29.7824C19.714 29.5574 19.5316 29.3751 19.3067 29.3751Z" fill="white"/>
<path d="M21.476 25.0312C20.5329 25.0312 19.7656 25.7985 19.7656 26.7417V28.4792C19.7656 29.4223 20.5329 30.1896 21.476 30.1896C22.4191 30.1896 23.1864 29.4223 23.1864 28.4792V26.7417C23.1864 25.7985 22.4191 25.0312 21.476 25.0312ZM22.372 28.4792C22.372 28.9732 21.97 29.3751 21.476 29.3751C20.982 29.3751 20.5801 28.9732 20.5801 28.4792V26.7417C20.5801 26.2476 20.982 25.8457 21.476 25.8457C21.97 25.8457 22.372 26.2476 22.372 26.7417V28.4792Z" fill="white"/>
<path d="M25.3823 27.2032C24.8966 27.2032 24.4864 26.8923 24.4864 26.5245C24.4864 26.1566 24.8966 25.8457 25.3823 25.8457C25.8079 25.8457 26.1869 26.086 26.2639 26.4046C26.3168 26.6231 26.5367 26.7575 26.7554 26.7047C26.974 26.6519 27.1084 26.4319 27.0556 26.2132C26.8902 25.5284 26.1864 25.0312 25.3823 25.0312C24.4392 25.0312 23.6719 25.7011 23.6719 26.5245C23.6719 27.3478 24.4392 28.0177 25.3823 28.0177C25.8679 28.0177 26.2782 28.3285 26.2782 28.6964C26.2782 29.0643 25.8679 29.3751 25.3823 29.3751C24.9566 29.3751 24.5776 29.1349 24.5006 28.8163C24.4478 28.5976 24.2277 28.4628 24.0091 28.5161C23.7905 28.569 23.6561 28.789 23.709 29.0076C23.8744 29.6925 24.5782 30.1896 25.3823 30.1896C26.3254 30.1896 27.0927 29.5197 27.0927 28.6964C27.0927 27.8731 26.3254 27.2032 25.3823 27.2032Z" fill="white"/>
<path d="M30.1641 25.8457C30.3891 25.8457 30.5714 25.6634 30.5714 25.4385C30.5714 25.2135 30.3891 25.0312 30.1641 25.0312H27.9922C27.7673 25.0312 27.585 25.2135 27.585 25.4385V29.7824C27.585 30.0073 27.7673 30.1896 27.9922 30.1896H30.1641C30.3891 30.1896 30.5714 30.0073 30.5714 29.7824C30.5714 29.5574 30.3891 29.3751 30.1641 29.3751H28.3994V28.0177H29.7298C29.9547 28.0177 30.137 27.8354 30.137 27.6104C30.137 27.3855 29.9547 27.2032 29.7298 27.2032H28.3994V25.8457H30.1641Z" fill="white"/>
<path d="M31.8992 25.0312H31.4649C31.24 25.0312 31.0576 25.2135 31.0576 25.4385V29.7824C31.0576 30.0073 31.24 30.1896 31.4649 30.1896H31.8992C33.3214 30.1896 34.4784 29.0326 34.4784 27.6104C34.4784 26.1883 33.3214 25.0312 31.8992 25.0312ZM31.8992 29.3751H31.8721V25.8457H31.8992C32.8723 25.8457 33.664 26.6373 33.664 27.6104C33.664 28.5835 32.8723 29.3751 31.8992 29.3751Z" fill="white"/>
</svg>
