<svg width="48" height="48" viewBox="0 0 48 48" fill="none" xmlns="http://www.w3.org/2000/svg">
<rect width="48" height="48" rx="24" fill="#37C1ED"/>
<path d="M18.4902 24.9803C19.2867 24.9803 19.9325 24.3346 19.9325 23.538C19.9325 22.7414 19.2867 22.0957 18.4902 22.0957C17.6936 22.0957 17.0479 22.7414 17.0479 23.538C17.0479 24.3346 17.6936 24.9803 18.4902 24.9803Z" fill="white"/>
<path d="M28.5859 24.9803C29.3824 24.9803 30.0282 24.3346 30.0282 23.538C30.0282 22.7414 29.3824 22.0957 28.5859 22.0957C27.7893 22.0957 27.1436 22.7414 27.1436 23.538C27.1436 24.3346 27.7893 24.9803 28.5859 24.9803Z" fill="white"/>
<path d="M23.538 24.9803C24.3346 24.9803 24.9803 24.3346 24.9803 23.538C24.9803 22.7414 24.3346 22.0957 23.538 22.0957C22.7414 22.0957 22.0957 22.7414 22.0957 23.538C22.0957 24.3346 22.7414 24.9803 23.538 24.9803Z" fill="white"/>
<path d="M23.5385 33.6337C21.5417 33.6337 19.5897 33.0416 17.9294 31.9322C16.2691 30.8228 14.9751 29.246 14.2109 27.4012C13.4468 25.5564 13.2468 23.5264 13.6364 21.5679C14.0259 19.6094 14.9875 17.8105 16.3995 16.3985C17.8115 14.9865 19.6104 14.025 21.5689 13.6354C23.5273 13.2458 25.5573 13.4458 27.4022 14.2099C29.247 14.9741 30.8238 16.2681 31.9332 17.9284C33.0426 19.5887 33.6347 21.5407 33.6347 23.5376C33.6317 26.2143 32.567 28.7806 30.6743 30.6733C28.7815 32.566 26.2153 33.6307 23.5385 33.6337ZM23.5385 14.8837C21.827 14.8837 20.1538 15.3913 18.7307 16.3422C17.3076 17.2931 16.1984 18.6446 15.5434 20.2259C14.8884 21.8072 14.7171 23.5472 15.051 25.2258C15.3849 26.9045 16.2091 28.4465 17.4193 29.6568C18.6296 30.867 20.1716 31.6912 21.8503 32.0251C23.5289 32.359 25.2689 32.1877 26.8502 31.5327C28.4315 30.8777 29.7831 29.7685 30.7339 28.3454C31.6848 26.9223 32.1924 25.2491 32.1924 23.5376C32.1898 21.2432 31.2772 19.0436 29.6548 17.4213C28.0325 15.7989 25.8329 14.8863 23.5385 14.8837Z" fill="white"/>
</svg>
