<svg width="48" height="48" viewBox="0 0 48 48" fill="none" xmlns="http://www.w3.org/2000/svg">
<rect width="48" height="48" rx="24" fill="#FCB045"/>
<path d="M35.6469 20.2095H32.7663L24.8368 14.2624C25.1046 14.0247 25.277 13.6816 25.277 13.2962C25.277 12.5816 24.6955 12 23.9808 12C23.2662 12 22.6846 12.5816 22.6846 13.2962C22.6846 13.6816 22.857 14.0247 23.1249 14.2624L15.1954 20.2095H12.3147C11.1234 20.2095 10.1543 21.1786 10.1543 22.3699V30.1473C10.1543 31.3385 11.1234 32.3077 12.3147 32.3077H35.6469C36.8382 32.3077 37.8073 31.3385 37.8073 30.1473V22.3699C37.8073 21.1786 36.8382 20.2095 35.6469 20.2095ZM23.9808 12.8642C24.2189 12.8642 24.4129 13.0582 24.4129 13.2962C24.4129 13.5343 24.2189 13.7283 23.9808 13.7283C23.7427 13.7283 23.5487 13.5343 23.5487 13.2962C23.5487 13.0582 23.7427 12.8642 23.9808 12.8642ZM23.9808 14.7005L31.3261 20.2095H16.6355L23.9808 14.7005ZM36.9432 30.1473C36.9432 30.862 36.3616 31.4435 35.6469 31.4435H12.3147C11.6 31.4435 11.0185 30.862 11.0185 30.1473V22.3699C11.0185 21.6552 11.6 21.0737 12.3147 21.0737H35.6469C36.3616 21.0737 36.9432 21.6552 36.9432 22.3699V30.1473Z" fill="white"/>
<path d="M24.8438 23.6665V28.8514C24.8438 29.0899 25.0373 29.2835 25.2758 29.2835H27.8683V28.4193H25.7079V26.691H27.8683V25.8268H25.7079V24.0985H27.8683V23.2344H25.2758C25.0373 23.2344 24.8438 23.4279 24.8438 23.6665Z" fill="white"/>
<path d="M31.3249 27.0211L29.5508 23.4733C29.4613 23.2944 29.2617 23.2002 29.0651 23.246C28.8703 23.2918 28.7324 23.466 28.7324 23.6665V29.2835H29.5966V25.4967L31.3703 29.045C31.445 29.1936 31.5958 29.2835 31.757 29.2835C31.7898 29.2835 31.8231 29.2796 31.8563 29.2718C32.0512 29.226 32.1891 29.0519 32.1891 28.8514V23.2344H31.3249V27.0211Z" fill="white"/>
<path d="M17.9314 23.2344C16.9783 23.2344 16.2031 24.0095 16.2031 24.9627V27.5552C16.2031 28.5083 16.9783 29.2835 17.9314 29.2835C18.8846 29.2835 19.6598 28.5083 19.6598 27.5552V24.9627C19.6598 24.0095 18.8846 23.2344 17.9314 23.2344ZM18.7956 27.5552C18.7956 28.0317 18.408 28.4193 17.9314 28.4193C17.4549 28.4193 17.0673 28.0317 17.0673 27.5552V24.9627C17.0673 24.4861 17.4549 24.0985 17.9314 24.0985C18.408 24.0985 18.7956 24.4861 18.7956 24.9627V27.5552Z" fill="white"/>
<path d="M22.2518 23.2344H20.9555C20.717 23.2344 20.5234 23.4279 20.5234 23.6665V29.2835H21.3876V26.691H22.2518C23.2049 26.691 23.9801 25.9159 23.9801 24.9627C23.9801 24.0095 23.2049 23.2344 22.2518 23.2344ZM22.2518 25.8268H21.3876V24.0985H22.2518C22.7283 24.0985 23.1159 24.4861 23.1159 24.9627C23.1159 25.4393 22.7283 25.8268 22.2518 25.8268Z" fill="white"/>
</svg>
