<svg width="48" height="48" viewBox="0 0 48 48" fill="none" xmlns="http://www.w3.org/2000/svg">
<rect width="48" height="48" rx="24" fill="#FD967B"/>
<path d="M26.6395 25.623C26.5614 25.5449 26.4374 25.5449 26.3639 25.623L22.86 29.1269C22.7085 29.2784 22.4605 29.2784 22.3044 29.1269L21.5467 28.3692C21.4686 28.2911 21.3446 28.2911 21.2711 28.3692L20.9267 28.7136C20.8486 28.7916 20.8486 28.9156 20.9267 28.9891L22.4467 30.5091C22.5248 30.5872 22.6488 30.5872 22.7223 30.5091L26.9839 26.2475C27.0573 26.1695 27.0573 26.0455 26.9839 25.9674L26.6395 25.623Z" fill="white"/>
<path d="M34.727 22.5784H33.3263L25.2256 14.092C25.3542 13.7292 25.3818 13.3159 25.1292 12.8567C24.8674 12.3791 24.3852 12.0301 23.8434 12.0025C22.9387 11.952 22.1856 12.673 22.1856 13.5685C22.1856 13.7521 22.2223 13.9266 22.282 14.092L14.1859 22.5784H12.7853C12.3536 22.5784 12 22.9274 12 23.3637V32.7686C12 33.2002 12.349 33.5538 12.7853 33.5538H34.7315C35.1632 33.5538 35.5168 33.2048 35.5168 32.7686V23.3637C35.5122 22.932 35.1632 22.5784 34.727 22.5784ZM23.7561 12.7832C24.1878 12.7832 24.5414 13.1368 24.5414 13.5685C24.5414 14.0001 24.1878 14.3537 23.7561 14.3537C23.3244 14.3537 22.9708 14.0001 22.9708 13.5685C22.9708 13.1322 23.3244 12.7832 23.7561 12.7832ZM27.9534 26.3854L22.856 31.4782C22.778 31.5562 22.6815 31.593 22.5805 31.593C22.4795 31.593 22.3784 31.5562 22.305 31.4782L19.9537 29.1269C19.8022 28.9754 19.8022 28.7274 19.9537 28.5713L21.1294 27.3957C21.2809 27.2441 21.5289 27.2441 21.685 27.3957L22.4427 28.1534C22.5208 28.2315 22.6448 28.2315 22.7183 28.1534L26.2221 24.6495C26.3737 24.498 26.6217 24.498 26.7778 24.6495L27.9534 25.8251C28.105 25.9813 28.105 26.2292 27.9534 26.3854ZM15.2651 22.5784L22.7366 14.7487C23.0122 14.9829 23.3612 15.1344 23.7515 15.1344C24.1419 15.1344 24.4909 14.9875 24.7664 14.7487L32.238 22.5784H15.2651Z" fill="white"/>
</svg>
