<svg width="48" height="48" viewBox="0 0 48 48" fill="none" xmlns="http://www.w3.org/2000/svg">
<rect width="48" height="48" rx="24" fill="#34DDAA"/>
<path d="M33.6547 22.4969C34.1143 22.4827 34.4796 22.106 34.4796 21.6462V18.3902C34.4796 17.9202 34.0985 17.5391 33.6284 17.5391H13.7749C13.3049 17.5391 12.9238 17.9202 12.9238 18.3902V21.644C12.9238 22.1141 13.3049 22.4952 13.7749 22.4952C14.8366 22.4952 15.7004 23.3589 15.7004 24.4206C15.7004 25.4823 14.8366 26.346 13.7749 26.346C13.3049 26.346 12.9238 26.7271 12.9238 27.1972V30.451C12.9238 30.921 13.3049 31.3021 13.7749 31.3021H33.6285C34.0985 31.3021 34.4796 30.9211 34.4796 30.451V27.195C34.4796 26.7352 34.1144 26.3585 33.6548 26.3443C32.6091 26.312 31.7901 25.4671 31.7901 24.4206C31.7901 23.3741 32.6091 22.5292 33.6547 22.4969ZM19.7756 29.5999H14.626V27.9474C16.2171 27.5635 17.4026 26.1279 17.4026 24.4206C17.4026 22.7133 16.2171 21.2777 14.626 20.8937V19.2413H19.7756V29.5999ZM31.1135 26.9477C31.5765 27.4241 32.1499 27.7582 32.7774 27.9252V29.5999H21.4777V19.2413H32.7774V20.916C32.1499 21.083 31.5765 21.4171 31.1135 21.8934C30.4521 22.574 30.0879 23.4715 30.0879 24.4206C30.0878 25.3697 30.4521 26.2672 31.1135 26.9477Z" fill="white"/>
<path d="M28.5949 22.0078H23.2886C22.8186 22.0078 22.4375 22.3889 22.4375 22.8589C22.4375 23.329 22.8186 23.71 23.2886 23.71H28.5949C29.0649 23.71 29.446 23.329 29.446 22.8589C29.446 22.3889 29.0649 22.0078 28.5949 22.0078Z" fill="white"/>
<path d="M28.5949 25.1309H23.2886C22.8186 25.1309 22.4375 25.5119 22.4375 25.982C22.4375 26.452 22.8186 26.8331 23.2886 26.8331H28.5949C29.0649 26.8331 29.446 26.452 29.446 25.982C29.446 25.5119 29.0649 25.1309 28.5949 25.1309Z" fill="white"/>
</svg>
